<svg aria-hidden="true" style="position: absolute; width: 0; height: 0; overflow: hidden;" version="1.1" xmlns="http://www.w3.org/2000/svg" xmlns:xlink="http://www.w3.org/1999/xlink">
<defs>
<symbol id="icon-github" viewBox="0 0 32 32">
<path d="M18.508 22.136c3.118-0.368 6.434-1.502 6.434-6.887 0-1.531-0.539-2.778-1.417-3.742 0.142-0.368 0.595-1.757-0.171-3.684 0 0-1.134-0.369-3.797 1.417-1.134-0.311-2.381-0.51-3.543-0.51-1.191 0-2.438 0.199-3.544 0.51-2.693-1.785-3.826-1.417-3.826-1.417-0.765 1.927-0.311 3.316-0.17 3.684-0.879 0.964-1.417 2.211-1.417 3.742 0 5.385 3.316 6.519 6.434 6.887-0.396 0.341-0.765 0.992-0.907 1.899-0.794 0.34-2.863 0.992-4.11-1.162 0 0-0.737-1.332-2.126-1.417 0 0-1.389-0.028-0.113 0.849 0 0 0.935 0.426 1.559 2.041 0 0 0.85 2.693 4.761 1.843v2.409c0 0.369-0.283 0.794-0.992 0.681-5.556-1.843-9.552-7.114-9.552-13.293 0-7.738 6.263-14.001 14.002-14.001 7.709 0 14.001 6.264 13.973 14.001 0 6.178-3.997 11.422-9.552 13.293-0.709 0.142-0.992-0.283-0.992-0.681v-3.882c0-1.305-0.426-2.154-0.935-2.58v0zM32 16.014c0-8.844-7.171-16.014-15.986-16.014-8.844 0-16.014 7.171-16.014 16.014 0 8.815 7.171 15.986 16.014 15.986 8.815 0 15.986-7.171 15.986-15.986v0z"></path>
</symbol>
<symbol id="icon-linkedin" viewBox="0 0 32 32">
<path d="M19.507 11.961c-0.676 0-1.178 0.171-1.57 0.386-0.063-0.224-0.27-0.387-0.513-0.338h-2.978c-0.294-0.049-0.533 0.19-0.442 0.499v10.977c-0.091 0.28 0.148 0.519 0.442 0.499h2.978c0.294 0.020 0.533-0.22 0.533-0.514l-0.001-6.634c-0.001-0.003-0.012-0.321 0.188-0.539 0.161-0.174 0.437-0.262 0.819-0.262 0.637 0 0.92 0.261 1.026 0.843v6.592c-0.105 0.294 0.133 0.534 0.428 0.514h3.138c0.294 0.020 0.533-0.22 0.427-0.514v-6.814c0.105-3.465-2.363-4.695-4.476-4.695zM23.023 22.985h-2.072v-6.108c0-1.178-0.761-1.909-1.986-1.909-0.692 0-1.231 0.204-1.602 0.605-0.516 0.559-0.476 1.267-0.365 1.425v5.987h-2.017v-9.959h1.912v0.335c0 0.202 0.115 0.389 0.298 0.478s0.399 0.067 0.561-0.056l0.14-0.108c0.404-0.318 0.823-0.649 1.618-0.649 0.825 0 3.516 0.262 3.516 3.629v6.328zM11.011 6.985c-1.12 0-2.030 0.91-2.030 2.030s0.91 2.030 2.030 2.030 2.030-0.91 2.030-2.030-0.91-2.030-2.030-2.030zM11.011 9.979c-0.531 0-0.964-0.433-0.964-0.964s0.433-0.964 0.964-0.964 0.964 0.433 0.964 0.964-0.433 0.964-0.964 0.964zM12.436 11.959h-2.962c-0.294 0-0.533 0.238-0.459 0.548v10.977c-0.074 0.28 0.165 0.519 0.459 0.499h2.962c0.294 0.020 0.533-0.22 0.533-0.514v-10.977c0-0.294-0.238-0.533-0.533-0.533zM12.008 22.985h-2.002v-9.959h2.002v9.959zM16 0c-8.824 0-16 7.177-16 16s7.177 16 16 16 16-7.177 16-16-7.177-16-16-16zM16 30.934c-8.235 0-14.934-6.7-14.934-14.934s6.7-14.934 14.934-14.934 14.934 6.7 14.934 14.934-6.7 14.934-14.934 14.934z"></path>
</symbol>
</defs>
</svg>
